<svg xmlns="http://www.w3.org/2000/svg" width="628" height="160" fill="none"><path fill="#fff" d="M88.235 108.587c-3.369-2.191-4.387-4.32-4.68-5.203l-.112-.427-.019.022c-.155.177-1.301 1.39-3.498 1.443v.005h-.019l-.01-.001h-.007l-.037-.002-.044.002-.029.001v-.005c-2.198-.054-3.343-1.266-3.498-1.443l-.019-.022-.112.427c-.293.883-1.311 3.013-4.68 5.203-8.86 5.762-9.355 11.574-9.382 12.228.197-8.964 1.986-14.469 4.222-17.858l.001.002c2.696-4.083 6.042-5.093 8.04-5.376 2.997-.423 4.906.995 5.501 1.524.595-.529 2.505-1.947 5.501-1.524 1.999.283 5.345 1.293 8.04 5.376l.002-.002c2.236 3.388 4.024 8.892 4.222 17.855-.029-.663-.532-6.468-9.383-12.225"/><path fill="#fff" d="M88.32 124.178a33 33 0 0 1-2.242 3.293c-4.103 5.287-6.3 10.796-6.3 13.556h-.01c0-2.76-2.196-8.269-6.299-13.556a33 33 0 0 1-2.241-3.293c-2.312-3.876-1.218-8.818 2.55-11.407a6.3 6.3 0 0 0 2.422-3.193c.501-1.499 1.937-2.515 3.56-2.526h.025c1.624.011 3.06 1.028 3.561 2.527a6.3 6.3 0 0 0 2.421 3.193c3.769 2.589 4.862 7.531 2.551 11.407l.001-.001ZM69.574 87.37l-1.628.739-.032.016-1.274.701c-2.165 1.301-3.07 2.447-3.07 2.447-.417-2.215-1.998-4.741-3.8-7.617-3.097-4.949-6.843-10.933-6.424-18.147l5.838-.628q-.306-.361-.57-.717c-.25-.333.186-.748.508-.485 1.499 1.228 3.28 2.23 4.743 2.23 2.238 0 4.15-2.288 4.15-2.288s-1.845-1.87-4.15-1.87c-1.287 0-3.22.552-4.675 1.038-.378.128-.635-.385-.304-.609 1.317-.89 3.256-1.897 5.293-1.897 3.231 0 8.108 5.448 9.845 7.388l.001.001c.224.25.396.443.505.557l-.315 12.341c-2.964-.136-5.17 1.668-5.73 3.82s1.09 2.978 1.09 2.978z"/><path fill="#fff" d="M88.46 86.202a3.41 3.41 0 0 1-2.842.505l-1.106-.294-.026-.006-.047.173c-.599 2.215-2.461 3.826-4.44 3.85-1.979-.024-3.84-1.635-4.44-3.85l-.047-.173-1.131.3a3.41 3.41 0 0 1-2.844-.505 1.655 1.655 0 0 1-.405-2.296 2.33 2.33 0 0 1 2.905-.78l2.156 1.007.434-9.222c.194-4.11.136-8.274-.17-12.379a3.825 3.825 0 0 0-3.8-3.522H62.158q-.962.001-1.904.16v.002a11.74 11.74 0 0 0-4.974 2.099l-.006.004-.008.006h-.002l-.004.004-.002.002-.004.002-.002.002-.003.002q-.171.126-.339.259l-.036.03q-.153.12-.302.25l-.036.03q-.153.134-.302.273l-.016.015-.047.045q-.15.14-.295.288c1.143-5.319 2.715-10.09 4.672-14.185 1.82-3.807 3.985-7.053 6.432-9.649 2.27-2.407 4.772-4.246 7.436-5.465 2.459-1.125 5.009-1.703 7.58-1.722h.036c2.56.024 5.098.601 7.545 1.721 2.665 1.22 5.166 3.058 7.436 5.465 2.447 2.596 4.61 5.841 6.431 9.649 1.958 4.094 3.53 8.867 4.673 14.185a12 12 0 0 0-.295-.287l-.022-.021-.011-.01-.03-.029a12 12 0 0 0-.302-.272l-.015-.013-.01-.008-.012-.01q-.149-.129-.302-.252l-.017-.014h-.001l-.002-.001-.009-.008-.004-.003-.004-.003a10 10 0 0 0-.338-.259l-.004-.003-.006-.004-.005-.004-.016-.012a11.7 11.7 0 0 0-4.974-2.098v-.002a11.5 11.5 0 0 0-1.904-.16H87.337a3.825 3.825 0 0 0-3.8 3.523 102 102 0 0 0-.17 12.378l.435 9.222 2.156-1.007a2.33 2.33 0 0 1 2.905.78 1.655 1.655 0 0 1-.406 2.296h.004Z"/><path fill="#fff" d="M96.43 91.273s-.907-1.146-3.07-2.447l-1.275-.701-.032-.016-1.628-.74s1.65-.825 1.09-2.978-2.766-3.955-5.73-3.819c0 0-.586-12.027.368-13.024a25 25 0 0 0 .513-.568c1.638-1.846 5.944-6.695 9.155-6.695 2.036 0 3.976 1.006 5.293 1.897.331.223.074.735-.304.61-1.456-.488-3.388-1.04-4.675-1.04-2.305 0-4.15 1.87-4.15 1.87s1.912 2.29 4.15 2.29c1.462 0 3.244-1.004 4.743-2.23.322-.265.758.15.508.484q-.264.355-.57.717l5.838.628c.419 7.213-3.327 13.197-6.424 18.145-1.801 2.877-3.383 5.404-3.8 7.618z"/><path fill="#fff" fill-rule="evenodd" d="M80 0C35.817 0 0 35.817 0 80s35.817 80 80 80 80-35.817 80-80S124.183 0 80 0m2.775 6.562a2.86 2.86 0 0 1-2.86 2.857 2.86 2.86 0 0 1-2.86-2.857 2.86 2.86 0 0 1 2.86-2.857c1.58 0 2.86 1.28 2.86 2.857M14.021 40.04c-1.58 0-2.86 1.28-2.86 2.857a2.86 2.86 0 0 0 2.86 2.857 2.86 2.86 0 0 0 2.86-2.857 2.86 2.86 0 0 0-2.86-2.857m2.86 75.504a2.86 2.86 0 0 1-2.86 2.857 2.86 2.86 0 0 1-2.86-2.857 2.86 2.86 0 0 1 2.86-2.856c1.58 0 2.86 1.279 2.86 2.856m129.099 2.857a2.86 2.86 0 0 1-2.86-2.857 2.86 2.86 0 0 1 2.86-2.856c1.58 0 2.86 1.279 2.86 2.856a2.86 2.86 0 0 1-2.86 2.857m-2.86-75.504a2.86 2.86 0 0 1 2.86-2.857c1.58 0 2.86 1.28 2.86 2.857a2.86 2.86 0 0 1-2.86 2.857 2.86 2.86 0 0 1-2.86-2.857m-84.01 64.336.015-.045.008-.02.008-.022.014-.039v-.003l.053-.145.007-.019.023-.062.08-.216.114-.248c2.53-5.344 9.296-9.855 13.35-10.882 4.046-1.025 6.967 1.128 7.068 1.204l-.01-.007.011.008v.003l.002-.002.002.002v-.003c.093-.07 3.017-2.231 7.069-1.205 4.054 1.026 10.82 5.538 13.35 10.882l.026.056.013.029.024.051.025.056.027.057.034.095.036.096.041.111.001.002.009.025.011.03.001.001.001.003.003.01.001.003.003.006.011.03.004.013.006.016.006.016.01.025.013.037.06.168v.001l-.081-.226-.007-.017c.119.381.215.853.288 1.408.667 4.876-.084 16.742-4.566 27.157-1.64 3.123-3.133 5.838-4.51 8.179a41.4 41.4 0 0 0 5.553-17.357q.233-2.657.3-5.68v.01l-.001.031c-.04 1.032-.368 9.519-14.17 19.354-1.192.85-.717 2.719.74 2.887l7.513.866c-1.362 2.309-2.608 4.247-3.771 5.847-.12-.065-.363-.247-.701-.5l-.001-.001c-1.489-1.112-4.812-3.596-7.458-3.596h-.002c-2.409 0-5.382 2.149-7.018 3.332l-.001.001c-.457.331-.81.586-1.017.697-1.15-1.586-2.381-3.503-3.723-5.779l7.514-.866c1.456-.167 1.931-2.037.739-2.887-13.802-9.836-14.13-18.322-14.17-19.354v-.028l-.001-.014c.044 2.016.147 3.907.3 5.68a41.4 41.4 0 0 0 5.544 17.342c-1.373-2.337-2.862-5.047-4.5-8.163-4.481-10.414-5.233-22.279-4.566-27.156q.11-.834.288-1.409l-.046.124Zm0 0-.043.118v-.002l.042-.116ZM38.487 43.324c2.779-2.817 8.507-8.901 13.84-16.296q.41-.567.82-1.106a57 57 0 0 0 1.034-1.403L18.467 41.697a4.6 4.6 0 0 1 .139 1.627zm103.935-3.348c-10.805-16.573-28.046-28.571-48.18-32.469l9.642 14.204 38.386 18.461-.007.01-.002.004-.002.002-.001.002q.08-.11.164-.214m-36.604-15.457 1.034 1.403q.41.54.82 1.106c5.333 7.394 11.06 13.478 13.84 16.296h19.883a4.7 4.7 0 0 1 .138-1.628zm23.868 93.316-2.576 6.399 14.523-7.168.005.014.007.018.009.025.011.028a4.6 4.6 0 0 1-.264-2.102c-24.326 6.223-25.08-44.944-25.089-45.653v.014c-.318 40.489 13.888 45.933 13.888 45.933-21.243-4.577-19.982-23.376-18.978-38.35.2-2.98.39-5.81.39-8.346 0-15.27-9.101-25.78-9.101-25.78a43.6 43.6 0 0 0 9.103 4.431l.001.001.001.002.002.005.004.006.003.006h.001l.005.009.008.014-.021-.035-.001-.003-.002-.004a43 43 0 0 0 5.907 1.61q.302.054.599.103l.004.01c3.394.612 5.557.554 5.557.554s3.027 7.25 4.268 20.447l.029.305.057.615 14.937-24.565a4.6 4.6 0 0 1-1.081-1.363H123.22c-11.013 0-25.063-9.923-32.085-14.882l-.008-.006c-.51-.36-.984-.695-1.417-.997q-.219-.154-.433-.3l-.003-.001q-.354-.239-.695-.458c-4.056-2.603-6.654-2.982-7.785-2.991v-7.198c2.745.179 11.243.94 22.055 11.551 0 0-9.366-12.84-22.055-12.772v-4.263c8.56.679 15.628 2.752 21.713 9.283L92.231 7.14a75 75 0 0 0-7.721-.866 4.6 4.6 0 0 1-4.595 4.884 4.6 4.6 0 0 1-4.596-4.874 75 75 0 0 0-7.55.855L57.49 21.98c6.085-6.53 13.153-8.604 21.713-9.283v4.263c-12.689-.067-22.055 12.772-22.055 12.772 10.812-10.61 19.31-11.372 22.055-11.55v7.197a8 8 0 0 0-.53.028h-.015l-.008.002h-.008c-1.464.14-4.25.849-8.354 3.719-.434.303-.91.64-1.423 1.002-7.022 4.959-21.074 14.883-32.087 14.883H18.106a4.6 4.6 0 0 1-1.08 1.363l14.936 24.566.018-.195.02-.203.031-.338.017-.185c1.241-13.196 4.268-20.447 4.268-20.447s2.163.058 5.557-.554l-.006.014-.003.007-.004.01-.006.015-.003.006.012-.029.004-.009.003-.007.004-.008.003-.01q.296-.048.6-.102a43 43 0 0 0 5.907-1.61 43.6 43.6 0 0 0 9.103-4.432s-9.055 10.458-9.1 25.666v.057l-.001.031v.027c0 2.535.19 5.364.39 8.345 1.004 14.974 2.265 33.772-18.978 38.35 0 0 14.206-5.444 13.888-45.932v-.014c-.009.708-.763 51.875-25.088 45.653a4.56 4.56 0 0 1-.258 2.083l.004-.012.005-.011.016-.044 14.543 7.178-2.571-6.438a36 36 0 0 0 4.67-1.34c2.085-.761 3.984-1.702 5.68-2.817a22 22 0 0 0 2.906-2.262 22.2 22.2 0 0 0 4.01-4.988h.003s-1.891 13.613 1.462 25.82l14.874 7.342a54 54 0 0 1-.663-1.295c-6.884-13.234-10.38-24.524-10.39-33.557-.01-8.431 3.027-12.513 4.838-14.196 1.508-1.402 3.027-1.909 3.569-1.576.692.425-1.718 6.6-3.09 9.807l.048.024c2.372-3.847 7.817-7.501 10.389-9.087l.068-.046c.59-.404 4.21-2.886 7.48.78 1.716 1.926 3.565 1.838 3.658 1.832h.003c.093.006 1.942.094 3.659-1.832 3.266-3.663 6.883-1.188 7.477-.78l.033.021.013.01.024.015c2.572 1.586 8.017 5.24 10.389 9.087l.047-.024c-1.371-3.206-3.781-9.381-3.089-9.807.542-.333 2.061.174 3.569 1.576 1.811 1.683 4.848 5.765 4.838 14.196-.011 9.033-3.506 20.323-10.39 33.557a62 62 0 0 1-.767 1.491l15.136-7.47.017-.06c3.372-12.201 1.467-25.799 1.467-25.799h.004a22.2 22.2 0 0 0 4.042 4.989 22.5 22.5 0 0 0 2.93 2.262c1.71 1.115 3.623 2.056 5.726 2.817q2.218.804 4.707 1.34l.003.001Zm-87.853-68.72.016-.04zm46.715 102.043 1.889-2.655a90 90 0 0 0 3.805-6.16l15.867-7.831c-3.026 8.906-9.225 16.516-21.561 16.646m58.277-40.134v-63.32c4.876 9.893 7.616 21.027 7.616 32.8 0 10.987-2.386 21.417-6.668 30.804a4.5 4.5 0 0 0-.951-.284zm-1.693.001a4.6 4.6 0 0 0-2.043.94c-11.107-10.295-13.543-26.026-14.78-38.21l16.128-26.523a4.5 4.5 0 0 0 .695.186zM65.758 7.505C45.623 11.4 28.382 23.402 17.577 39.974q.079.099.153.2L56.114 21.71l9.644-14.207ZM17.735 40.18l-.005-.006zm0 .002.007.008-.006-.008Zm-5.51 71.125c-4.28-9.386-6.667-19.816-6.667-30.803 0-11.773 2.74-22.907 7.616-32.801v63.32h.003a4.5 4.5 0 0 0-.951.284Zm3.338-64.077L31.69 73.754h-.001c-1.237 12.185-3.673 27.917-14.78 38.212a4.6 4.6 0 0 0-2.042-.94V47.418q.36-.066.696-.187Zm126.892 71.27c.29.344.629.646 1.006.894h.002a74.8 74.8 0 0 1-24.172 24.282l-.002-.001-.001-.002-.001-.001-.001-.001 6.878-17.083 16.319-8.054-.001-.002-.002-.001-.003-.004-.005-.007-.002-.002zm-124.936.033 16.33 8.059 6.81 17.049-.002.001a74.8 74.8 0 0 1-24.117-24.248 4.6 4.6 0 0 0 1.004-.892l-.004.005-.012.015-.004.004zm62.347-21.805-.006.003-.004.003-.001.002v-.002h.001l.002-.001.002-.002h.001l.002-.002zm-8.717 54.4a62 62 0 0 1-1.881-2.626 91 91 0 0 1-3.92-6.362l-15.604-7.701c2.997 8.924 9.148 16.558 21.405 16.689" clip-rule="evenodd"/><path fill="#fff" d="M201 107.13V52.852h8.689V99.48h23.696v7.65zm57.563.871c-3.977 0-7.504-.897-10.601-2.692-3.043-1.848-5.421-4.318-7.136-7.428-1.714-3.154-2.576-6.681-2.576-10.564s.862-7.508 2.576-10.564c1.768-3.057 4.12-5.465 7.064-7.215 2.944-1.795 6.283-2.692 10.008-2.692 2.989 0 5.664.506 8.025 1.528s4.344 2.426 5.96 4.23a17.9 17.9 0 0 1 3.68 6.05c.88 2.283 1.329 4.709 1.329 7.286 0 .63-.027 1.288-.072 1.963a10 10 0 0 1-.296 1.893h-31.721v-6.557h27.008l-3.976 2.985c.494-2.381.323-4.496-.512-6.335-.79-1.893-2.01-3.376-3.68-4.443-1.616-1.12-3.536-1.679-5.745-1.679q-3.314 0-5.888 1.68c-1.714 1.066-3.043 2.62-3.976 4.664-.934 1.99-1.302 4.416-1.104 7.286-.242 2.674.126 5.002 1.104 6.992 1.032 1.99 2.45 3.545 4.272 4.665q2.801 1.679 6.328 1.679c2.352 0 4.444-.533 6.113-1.6 1.715-1.065 3.07-2.451 4.048-4.148l6.768 3.278c-.79 1.848-2.011 3.519-3.68 5.029-1.616 1.457-3.581 2.621-5.888 3.501q-3.394 1.237-7.432 1.235zm45.651 0q-5.735 0-10.528-2.692a20.4 20.4 0 0 1-7.504-7.357c-1.867-3.11-2.801-6.628-2.801-10.564s.934-7.508 2.801-10.564c1.867-3.11 4.362-5.536 7.504-7.286q4.712-2.692 10.528-2.692c3.878 0 7.432.897 10.529 2.692q4.713 2.623 7.432 7.286c1.867 3.056 2.801 6.583 2.801 10.564q0 5.97-2.801 10.635a20.5 20.5 0 0 1-7.504 7.357c-3.141 1.75-6.624 2.621-10.448 2.621zm0-7.65c2.352 0 4.443-.56 6.257-1.68 1.813-1.119 3.24-2.647 4.272-4.593 1.077-1.99 1.616-4.229 1.616-6.699s-.539-4.691-1.616-6.628c-1.032-1.946-2.45-3.474-4.272-4.594-1.814-1.12-3.905-1.679-6.257-1.679s-4.389.56-6.256 1.68c-1.813 1.119-3.267 2.647-4.344 4.593-1.033 1.946-1.544 4.15-1.544 6.628 0 2.479.511 4.709 1.544 6.7 1.077 1.945 2.531 3.473 4.344 4.593 1.867 1.12 3.949 1.679 6.256 1.679m28.876 6.779V67.717h7.953v7.72l-.961-1.021c.978-2.48 2.549-4.345 4.712-5.607 2.155-1.315 4.659-1.963 7.504-1.963 2.846 0 5.547.63 7.8 1.892a13.7 13.7 0 0 1 5.296 5.242c1.275 2.23 1.912 4.807 1.912 7.721v25.429h-8.24V83.887c0-1.99-.368-3.67-1.104-5.029-.736-1.404-1.786-2.479-3.168-3.207-1.329-.773-2.846-1.164-4.56-1.164-1.715 0-3.267.39-4.641 1.164-1.328.728-2.351 1.795-3.087 3.207q-1.104 2.108-1.104 5.03v23.242h-8.321zm55.049.871q-4.052 0-7.136-1.386c-2.01-.968-3.581-2.283-4.712-3.936q-1.696-2.546-1.696-5.97c0-2.133.466-4.061 1.4-5.758.978-1.697 2.477-3.137 4.488-4.3 2.01-1.164 4.542-1.99 7.584-2.48l13.841-2.256V88.4l-12.216 2.114c-2.208.391-3.824 1.093-4.856 2.115q-1.546 1.453-1.544 3.785c0 1.555.566 2.745 1.697 3.714 1.176.924 2.675 1.386 4.488 1.386 2.253 0 4.218-.489 5.888-1.457 1.714-.969 3.043-2.257 3.976-3.865q1.4-2.48 1.4-5.464v-10.13c0-1.945-.736-3.518-2.208-4.735q-2.139-1.892-5.744-1.892-3.312.002-5.817 1.75a10.25 10.25 0 0 0-3.608 4.371l-6.92-3.42c.736-1.946 1.938-3.643 3.608-5.1 1.669-1.502 3.608-2.675 5.816-3.501 2.253-.826 4.641-1.235 7.136-1.235q4.713.002 8.321 1.75c2.45 1.164 4.344 2.79 5.664 4.878 1.373 2.044 2.064 4.425 2.064 7.144v26.521h-7.952v-7.143l1.696.222a14.7 14.7 0 0 1-3.608 4.149q-2.142 1.747-4.928 2.692c-1.813.631-3.851.951-6.113.951h-.009Zm30.626-.871V67.717h7.953v7.943l-.736-1.164c.879-2.577 2.307-4.416 4.272-5.536 1.966-1.163 4.318-1.75 7.064-1.75h2.433v7.508h-3.456c-2.746 0-4.981.853-6.696 2.55q-2.504 2.48-2.504 7.143v22.728h-8.321zm45.068.871c-3.823 0-7.261-.897-10.304-2.692-2.989-1.848-5.377-4.318-7.136-7.428-1.714-3.11-2.576-6.602-2.576-10.493s.88-7.384 2.648-10.493q2.652-4.665 7.136-7.357c4.484-2.692 6.382-2.692 10.161-2.692 3.186 0 6.013.63 8.464 1.892q3.675 1.895 5.816 5.242l-1.247 1.893v-23.9h8.24v55.148h-7.872v-8.014l.96 1.528c-1.373 2.382-3.339 4.203-5.888 5.465s-5.35 1.892-8.393 1.892zm.808-7.65c2.307 0 4.362-.56 6.185-1.68 1.867-1.119 3.312-2.647 4.344-4.593 1.077-1.99 1.616-4.229 1.616-6.699s-.539-4.691-1.616-6.628c-1.032-1.946-2.477-3.474-4.344-4.594q-2.723-1.68-6.185-1.679c-2.307 0-4.389.56-6.256 1.68s-3.312 2.647-4.344 4.593-1.544 4.15-1.544 6.628c0 2.479.511 4.709 1.544 6.7 1.032 1.945 2.45 3.473 4.272 4.593q2.801 1.68 6.328 1.679m49.314 7.65q-5.736 0-10.529-2.692a20.4 20.4 0 0 1-7.504-7.357c-1.867-3.11-2.8-6.628-2.8-10.564s.933-7.508 2.8-10.564c1.867-3.11 4.363-5.536 7.504-7.286q4.712-2.692 10.529-2.692c5.817 0 7.432.897 10.529 2.692q4.712 2.623 7.432 7.286c1.867 3.056 2.8 6.583 2.8 10.564q0 5.97-2.8 10.635a20.5 20.5 0 0 1-7.504 7.357q-4.713 2.623-10.448 2.621zm0-7.65c2.352 0 4.443-.56 6.256-1.68s3.241-2.647 4.273-4.593c1.077-1.99 1.615-4.229 1.615-6.699s-.538-4.691-1.615-6.628c-1.032-1.946-2.451-3.474-4.273-4.594-1.813-1.12-3.904-1.679-6.256-1.679s-4.389.56-6.256 1.68c-1.813 1.119-3.267 2.647-4.345 4.593-1.032 1.946-1.543 4.15-1.543 6.628 0 2.479.511 4.709 1.543 6.7 1.078 1.945 2.532 3.473 4.345 4.593 1.867 1.12 3.949 1.679 6.256 1.679m32.556 6.779v-9.471h8.464v9.471zm17.473.009 19.28-54.278h10.744l19.281 54.278h-9.272l-4.192-12.163H577.52l-4.273 12.163h-9.272zm16.049-19.813h17.153l-9.712-28.414h2.432l-9.864 28.414zm38.964 19.813V67.725h8.321v39.414zm0-44.807v-9.471h8.321v9.471z"/></svg>