<svg xmlns="http://www.w3.org/2000/svg" width="628" height="160" fill="none" viewBox="0 0 628 160"><defs><linearGradient id="c" x1="0" x2="1" y1="0" y2="1"><stop offset="0%" stop-color="#F0F"/><stop offset="50%" stop-color="#93F"/><stop offset="100%" stop-color="#0CF"/></linearGradient><linearGradient id="a" x1="0" x2="1" y1="0" y2="1"><stop offset="0%" stop-color="#F0F" stop-opacity=".2"/><stop offset="100%" stop-color="#0CF" stop-opacity="0"/></linearGradient><clipPath id="b"><path d="m80 30 40 100 40-100a40 40 0 0 1 40 40l-40 60h40a40 40 0 0 0 40-40V30Z"/></clipPath></defs><circle cx="160" cy="80" r="100" fill="url(#a)" filter="blur(20px)"/><g clip-path="url(#b)"><path fill="url(#c)" d="M0 0h628v160H0z"/><path fill="rgba(255,255,255,0.1)" d="m82 32 40 100 40-100a40 40 0 0 1 40 40l-40 60h40a40 40 0 0 0 40-40V32Z"/></g><text x="280" y="80" fill="#fff" dominant-baseline="middle" font-family="Inter, Arial, sans-serif" font-size="64" font-weight="700" letter-spacing="-1">
    We Better
  </text><path stroke="rgba(255,255,255,0.4)" stroke-width="2" d="m100 40 40 20m40-10 40 20" opacity=".5"/></svg>