<?xml version="1.0" encoding="UTF-8"?> <svg xmlns="http://www.w3.org/2000/svg" width="167" height="113" viewBox="0 0 167 113" fill="none"><g clip-path="url(#clip0_3591_20411)"><path fill-rule="evenodd" clip-rule="evenodd" d="M31.7773 56.8442C31.7773 59.8442 30.6055 62.7036 28.543 64.8599C26.6211 66.8755 24.1367 68.0474 21.8398 68.0474H12.418V47.7036H21.5586C23.3867 47.7036 25.3086 48.688 27.0898 50.4224C28.7305 52.2505 29.6211 54.5474 29.6211 56.8442C29.6211 59.1411 28.6836 61.3911 26.9961 63.2192C25.4023 64.9067 23.3867 65.8911 21.6055 65.8911H16.8242V65.3286L16.8711 52.063H17.9961L17.9492 64.7192H21.6055C23.0117 64.7192 24.6992 63.8286 26.1055 62.4224C27.6523 60.8286 28.4492 58.813 28.4492 56.8442C28.4492 54.2192 27.043 51.4536 24.8867 50.0005C23.8555 49.2505 22.7305 48.9224 21.5586 48.9224L13.5898 48.8755V66.8755H21.8398C24.6055 66.8755 27.8398 64.7192 29.4805 61.7192C30.2773 60.2192 30.6523 58.5786 30.6523 56.8442C30.6523 53.563 28.8711 50.1411 26.1523 48.2661C24.793 47.3286 23.3398 46.8599 21.8398 46.8599L12.418 46.813V45.6411H21.8398C24.2305 45.6411 26.7148 46.8599 28.6367 48.8755C30.6992 51.0317 31.7773 53.8911 31.7773 56.8442ZM19.2148 63.688V62.563H21.4648C22.543 62.563 23.7617 61.8599 24.7461 60.7349C25.7305 59.6099 26.3398 58.1567 26.3398 56.8442C26.3398 54.8755 25.4023 53.0942 23.7617 51.9224C22.9648 51.3599 22.2148 51.0786 21.4648 51.0786L15.7461 51.1255V65.938H14.6211L14.5742 50.0005L21.4648 49.9536C23.5273 49.9536 25.543 51.313 26.668 53.4692C27.2305 54.5474 27.5117 55.6724 27.5117 56.8442C27.5117 59.0005 26.2461 61.2974 24.2773 62.6567C23.293 63.3599 22.3555 63.688 21.4648 63.688H19.2148ZM39.6055 45.688H40.7773V66.9692H53.0586V63.7349H44.0117V60.6411H45.1836V62.563H54.2305V68.0942H39.6055V45.688ZM41.8086 45.688H54.043V51.1724H46.3555V50.0474H52.918V46.8599H42.9336V56.1411H50.4336V57.2661H41.8086V45.688ZM41.8086 58.3442H51.5586V55.1099H44.0117V47.8442H51.793V48.9692H45.1836V53.9849H52.7305V59.4692H42.9336V64.813H51.9336V65.9849H41.8086V58.3442ZM81.2774 56.8911C81.2774 59.8911 80.1524 62.7505 78.043 64.8599C76.168 66.9224 73.6367 68.0942 71.3399 68.0942H61.918V47.7505H71.1055C72.9336 47.7505 74.8555 48.688 76.5899 50.4692C78.2305 52.2505 79.168 54.5942 79.168 56.8911C79.168 59.1411 78.2305 61.3911 76.4961 63.2192C74.9492 64.9067 72.8867 65.8911 71.1055 65.8911H66.3242V65.3286L66.3711 52.063H67.4961L67.4492 64.7661H71.1055C72.5117 64.7661 74.2461 63.8755 75.6523 62.4224C77.1524 60.8755 77.9961 58.8599 77.9961 56.8911C77.9961 54.2192 76.5899 51.4536 74.4336 50.0005C73.3555 49.2974 72.2305 48.9224 71.1055 48.9224L63.0899 48.8755V66.9224H71.3399C74.1524 66.9224 77.3867 64.7192 78.9805 61.7192C79.7774 60.2192 80.1524 58.6255 80.1524 56.8911C80.1524 53.563 78.3711 50.188 75.6992 48.2661C74.293 47.3286 72.8399 46.8599 71.3399 46.8599L61.918 46.813V45.688H71.3399C73.7305 45.688 76.2149 46.8599 78.1367 48.8755C80.1992 51.0786 81.2774 53.8911 81.2774 56.8911ZM68.7149 63.7349V62.563H71.0117C72.043 62.563 73.2617 61.9067 74.2461 60.7817C75.2773 59.6567 75.8867 58.1567 75.8867 56.8442C75.8867 54.8755 74.9492 53.0942 73.3086 51.9224C72.5117 51.4067 71.7149 51.1255 71.0117 51.1255H65.293V65.9849H64.1211L64.0742 50.0005H71.0117C73.0274 50.0005 75.0899 51.313 76.2149 53.4692C76.7305 54.5942 77.0117 55.7192 77.0117 56.8442C77.0117 59.0005 75.793 61.2974 73.8242 62.7036C72.8399 63.3599 71.9024 63.7349 71.0117 63.7349H68.7149ZM87.9805 45.6411H91.3555V65.9849H90.2305V46.813H89.1524V66.9692H92.3867V45.6411H93.5586V68.1411H87.9805V45.6411ZM112.449 68.0942C109.355 68.0942 106.965 67.2974 105.418 65.7036C103.871 64.1567 103.074 61.8599 103.074 59.188V45.6411H108.512V59.188C108.512 61.6255 109.684 62.6567 112.309 62.6567C114.84 62.6567 116.199 61.3911 116.199 59.188V45.6411H119.527V59.188C119.527 60.8755 119.059 62.4692 118.215 63.6411C117.043 65.188 115.215 65.938 112.402 65.938C110.762 65.938 109.449 65.7036 108.465 65.2349C106.449 64.2974 105.23 62.2349 105.23 59.188V47.7036H106.355V59.188C106.355 62.7974 108.465 64.813 112.402 64.813C116.34 64.813 118.355 62.7974 118.355 59.188V46.813H117.371V59.188C117.371 62.0005 115.496 63.7817 112.309 63.7817C109.074 63.7817 107.387 62.1411 107.387 59.188V46.813H104.199V59.188C104.199 64.2974 107.059 66.9224 112.449 66.9224C115.309 66.9224 117.23 66.2661 118.543 64.9067C119.855 63.5005 120.559 61.5317 120.559 59.188V45.6411H121.73V59.188C121.73 61.8599 120.887 64.1099 119.34 65.7036C117.793 67.2974 115.496 68.0942 112.449 68.0942ZM133.684 45.5942L141.699 60.6411L146.199 52.2974L148.59 68.0942H147.418L145.59 55.9067L141.699 63.0786L132.371 45.5942H133.684ZM147.184 45.5942H149.668L153.043 68.0942H149.668L149.574 67.6255L146.996 50.7974L147.934 49.1099L148.215 51.0317L150.652 66.9224H151.684L151.168 63.2192L148.73 47.563L148.637 46.7661H147.887L146.809 48.7349L146.715 48.9692L143.902 54.2192L141.793 58.2505L141.09 57.0317L142.637 54.2192L147.184 45.5942ZM141.699 65.3286L144.934 59.2349V59.4692L145.215 61.1567L141.699 67.813L131.902 49.3442L129.184 66.9224H132.465L133.543 59.7505L133.824 60.2192L134.48 61.4849L133.449 68.0942H127.824L131.246 45.688L131.434 46.0161L140.668 63.4067L141.699 65.3286ZM131.48 66.0317H130.309L132.418 52.6255L140.621 68.0942H139.309L133.027 56.2349L131.48 66.0317Z" fill="white"></path></g><defs><clipPath id="clip0_3591_20411"><rect width="142.5" height="24.375" fill="white" transform="translate(12.418 44.1875)"></rect></clipPath></defs></svg> 