<?xml version="1.0" encoding="UTF-8"?> <svg xmlns="http://www.w3.org/2000/svg" width="150" height="35" viewBox="0 0 150 35" fill="none"><path d="M47.8447 23.8794H56.2564V27.8968H43.0444V6.74499H47.8447V23.8794ZM1.28125 1.50977H33.4254V33.2427H1.28125V1.50977ZM4.12293 30.4458H30.5758V4.30399H4.12293V30.4458ZM9.77201 6.78717L15.3631 16.5881L9.14199 27.939H13.1488L17.2953 20.1916L21.7108 27.939H25.7914L13.8526 6.78453L9.77201 6.78717ZM91.9461 12.2069C90.9223 12.1835 89.9122 12.4445 89.0279 12.9608C88.2522 13.4376 87.5799 14.065 87.0509 14.8061H86.9876C86.3286 13.206 84.7601 12.2016 82.7831 12.2016C80.147 12.2016 78.7974 13.6436 78.1384 14.6189H78.0435L77.8247 12.547H73.9338V27.8915H78.5786V18.9526C78.5634 18.5471 78.6269 18.1424 78.7657 17.7611C79.0478 16.9703 79.7701 16.0345 80.9932 16.0345C82.501 16.0345 83.1917 17.3525 83.1917 19.2979V27.8968H87.8364V18.9342C87.8342 18.5183 87.8974 18.1046 88.0236 17.7084C88.166 17.2342 88.4555 16.8175 88.8502 16.5185C89.2449 16.2195 89.7244 16.0537 90.2194 16.045C91.7589 16.045 92.4812 17.3314 92.4812 19.5615V27.9073H97.1233V18.8603C97.1233 14.2789 94.8958 12.2069 91.9461 12.2069ZM127.96 6.14397H132.731V27.8836H128.619L128.4 25.6245H128.337C127.364 27.3511 125.511 28.2289 123.534 28.2289C119.894 28.2289 116.975 25.1236 116.975 20.3524C116.944 15.1751 120.176 12.1937 123.848 12.1937C125.732 12.1937 127.206 12.8528 127.897 13.9204H127.96V6.14397ZM127.96 19.0343C127.955 18.7513 127.934 18.4688 127.897 18.1881C127.615 16.9017 126.579 15.8341 125.105 15.8341C122.938 15.8341 121.81 17.7796 121.81 20.1968C121.81 22.8013 123.096 24.433 125.073 24.433C125.73 24.4404 126.368 24.216 126.875 23.7994C127.382 23.3829 127.726 22.8007 127.847 22.1554C127.939 21.7966 127.982 21.4267 127.973 21.0562L127.96 19.0343ZM148.542 18.8129V27.8836H144.43L144.148 26.3468H144.053C143.046 27.5699 141.47 28.2289 139.643 28.2289C136.525 28.2289 134.666 25.9698 134.666 23.5209C134.666 19.5352 138.723 18.3648 143.705 18.3648V17.4448C143.705 16.6302 143.265 15.4677 140.903 15.4677C139.658 15.4849 138.431 15.7624 137.3 16.2823L135.771 13.5539C136.841 12.9582 138.95 12.2043 141.755 12.2043C146.887 12.2043 148.542 15.2173 148.542 18.8261V18.8129ZM143.863 21.1854C141.227 21.1854 139.089 21.3646 139.079 23.2942C139.079 24.5252 140.21 24.8574 141.28 24.8574C141.827 24.8615 142.361 24.6941 142.807 24.3786C143.254 24.0632 143.59 23.6157 143.768 23.0991C143.833 22.8325 143.865 22.559 143.863 22.2846V21.1854ZM115.13 19.9306C115.13 25.4505 111.661 28.2078 108.192 28.2078C106.426 28.2078 104.723 27.5488 103.64 25.7326H103.595L103.41 27.8625H99.5353V6.15715H104.238V14.3632H104.299C105.198 13.0452 106.777 12.2016 108.883 12.2016C112.507 12.2016 115.17 15.241 115.141 19.9438L115.13 19.9306ZM110.327 20.1204C110.327 17.7479 109.273 15.8552 107.077 15.8552C105.806 15.8552 104.631 16.8279 104.32 18.2066C104.257 18.495 104.227 18.7893 104.227 19.0844V21.3435C104.225 21.6282 104.256 21.9123 104.32 22.1897C104.456 22.8223 104.803 23.3899 105.304 23.7997C105.805 24.2096 106.43 24.4375 107.077 24.4462C109.102 24.4593 110.338 22.8909 110.338 20.1336L110.327 20.1204ZM71.8408 18.8024V27.873H67.7443L67.4623 26.3362H67.3674C66.3578 27.5594 64.784 28.2184 62.9573 28.2184C59.8362 28.2342 57.9909 25.983 57.9909 23.5341C57.9909 19.5484 62.0478 18.3779 67.03 18.3779V17.4448C67.03 16.6302 66.5898 15.4677 64.2278 15.4677C62.9838 15.4846 61.7572 15.7621 60.627 16.2823L59.0954 13.5539C60.1683 12.9582 62.2771 12.2043 65.0819 12.2043C70.2038 12.2043 71.8592 15.2173 71.8592 18.8261L71.8408 18.8024ZM67.1618 21.1748C64.5257 21.1748 62.3879 21.3541 62.3773 23.2837C62.3773 24.5147 63.5082 24.8468 64.5784 24.8468C65.1251 24.8514 65.6594 24.6841 66.1059 24.3686C66.5524 24.0531 66.8885 23.6054 67.0669 23.0886C67.1314 22.8219 67.1633 22.5484 67.1618 22.274V21.1748Z" fill="white"></path></svg> 