<?xml version="1.0" encoding="UTF-8"?> <svg xmlns="http://www.w3.org/2000/svg" width="24" height="25" viewBox="0 0 24 25" fill="none"><path d="M22 16.5958C21.9986 16.3427 21.9473 16.0923 21.849 15.859C21.7506 15.6257 21.6072 15.414 21.4268 15.2361C21.2464 15.0582 21.0326 14.9175 20.7977 14.8221C20.5628 14.7267 20.3113 14.6784 20.0577 14.6801L18.0115 14.6941L17.9853 10.4216L20.0316 10.4076C20.5447 10.4045 21.0357 10.1981 21.3964 9.83375C21.7571 9.46939 21.9579 8.97697 21.9548 8.46481C21.9517 7.95264 21.7448 7.46269 21.3798 7.10273C21.0147 6.74278 20.5213 6.5423 20.0081 6.54541L17.9632 6.5621L17.9502 4.51687C17.9492 4.26366 17.8981 4.01314 17.7999 3.77968C17.7016 3.54621 17.5582 3.33438 17.3778 3.15632C17.1974 2.97827 16.9836 2.83749 16.7486 2.74205C16.5136 2.64661 16.262 2.59839 16.0083 2.60014C15.4956 2.60434 15.0055 2.81144 14.6457 3.17596C14.2859 3.54048 14.0857 4.03262 14.0892 4.5443L14.1012 6.5892L9.82773 6.62001C9.82154 5.37633 9.81472 4.57478 9.81472 4.57478C9.81354 4.32162 9.76235 4.07116 9.66408 3.83776C9.56581 3.60436 9.42238 3.39259 9.24202 3.21456C9.06165 3.03653 8.84788 2.89574 8.61294 2.80025C8.37799 2.70476 8.12649 2.65644 7.87281 2.65806C7.61892 2.65976 7.36784 2.71137 7.13394 2.80994C6.90003 2.90851 6.68787 3.0521 6.50959 3.23252C6.33131 3.41293 6.19039 3.62664 6.09488 3.86142C5.99938 4.0962 5.95116 4.34746 5.95298 4.60085L5.96566 6.64711L3.85314 6.66167C3.36343 6.68213 2.89976 6.88739 2.55589 7.23597C2.21202 7.58455 2.01359 8.05043 2.00074 8.53942C1.97144 9.6047 2.81896 10.5285 3.87626 10.5215L5.9891 10.5059L6.01424 14.778L3.90243 14.794C3.41295 14.8147 2.94953 15.0198 2.60549 15.3679C2.26145 15.716 2.06235 16.1813 2.04828 16.67C2.01899 17.7353 2.86585 18.6611 3.9238 18.6521C3.93274 18.6527 4.76375 18.6479 6.03735 18.6379L6.05025 20.7479C6.06946 21.2364 6.27391 21.6993 6.62222 22.0431C6.97053 22.3868 7.43667 22.5857 7.92633 22.5994C8.99168 22.628 9.91899 21.7804 9.91095 20.7215L9.89909 18.6118L14.1736 18.5813L14.1861 20.6924C14.2054 21.1806 14.4098 21.6434 14.7578 21.987C15.1059 22.3307 15.5718 22.5296 16.0612 22.5435C17.1279 22.5714 18.0542 21.7235 18.0468 20.666L18.0343 18.5549C18.7161 18.5498 19.398 18.5446 20.0798 18.5396C20.5925 18.5354 21.0827 18.3284 21.4426 17.964C21.8026 17.5995 22.0031 17.1075 22 16.5958ZM9.87598 14.752L9.85084 10.4799L14.1239 10.4501L14.1501 14.7225L9.87598 14.752Z" fill="#B9BBC8"></path></svg> 